<?xml version="1.0" standalone="no"?><svg xmlns="http://www.w3.org/2000/svg" viewBox="0 0 1440 320"><path fill="#5000ca" fill-opacity="1" d="M0,256L40,224C80,192,160,128,240,117.3C320,107,400,149,480,154.7C560,160,640,128,720,106.7C800,85,880,75,960,80C1040,85,1120,107,1200,144C1280,181,1360,235,1400,261.3L1440,288L1440,320L1400,320C1360,320,1280,320,1200,320C1120,320,1040,320,960,320C880,320,800,320,720,320C640,320,560,320,480,320C400,320,320,320,240,320C160,320,80,320,40,320L0,320Z"></path></svg>